<?xml version="1.0" encoding="utf-8"?>
<!-- Generator: Adobe Illustrator 16.0.0, SVG Export Plug-In . SVG Version: 6.00 Build 0)  -->
<!DOCTYPE svg PUBLIC "-//W3C//DTD SVG 1.1//EN" "http://www.w3.org/Graphics/SVG/1.1/DTD/svg11.dtd">
<svg version="1.1" id="Layer_1" xmlns="http://www.w3.org/2000/svg" xmlns:xlink="http://www.w3.org/1999/xlink" x="0px" y="0px"
	 width="12.992px" height="11px" viewBox="0 0 12.992 11" enable-background="new 0 0 12.992 11" xml:space="preserve">
<g>
	<path fill="#4FFFF5" d="M0,8.75v-6.5c0-0.62,0.22-1.149,0.66-1.59C1.1,0.22,1.63,0,2.25,0h6.5c0.328,0,0.633,0.065,0.914,0.195
		c0.078,0.036,0.125,0.097,0.141,0.18c0.016,0.089-0.008,0.164-0.07,0.227L9.352,0.984C9.3,1.036,9.24,1.062,9.172,1.062
		c-0.016,0-0.039-0.005-0.07-0.016C8.98,1.016,8.863,1,8.75,1h-6.5C1.906,1,1.612,1.122,1.367,1.367C1.122,1.612,1,1.906,1,2.25v6.5
		c0,0.344,0.122,0.639,0.367,0.883C1.612,9.878,1.906,10,2.25,10h6.5c0.344,0,0.639-0.122,0.883-0.367C9.877,9.389,10,9.094,10,8.75
		V6.766c0-0.066,0.023-0.125,0.07-0.172l0.5-0.5c0.052-0.052,0.111-0.078,0.18-0.078c0.031,0,0.063,0.008,0.094,0.023
		C10.948,6.081,11,6.156,11,6.266V8.75c0,0.62-0.221,1.148-0.66,1.59C9.898,10.78,9.37,11,8.75,11h-6.5c-0.62,0-1.15-0.22-1.59-0.66
		C0.22,9.898,0,9.37,0,8.75z M2.008,5c0-0.172,0.063-0.32,0.188-0.445l0.859-0.859C3.18,3.57,3.328,3.508,3.5,3.508
		S3.82,3.57,3.945,3.695L6,5.75l5.055-5.055C11.18,0.57,11.328,0.508,11.5,0.508s0.32,0.063,0.445,0.188l0.859,0.859
		C12.93,1.68,12.992,1.828,12.992,2s-0.063,0.32-0.188,0.445l-6.36,6.36C6.32,8.93,6.172,8.992,6,8.992S5.68,8.93,5.555,8.805
		l-3.36-3.36C2.07,5.32,2.008,5.172,2.008,5z"/>
</g>
</svg>
