<svg xmlns="http://www.w3.org/2000/svg" xmlns:xlink="http://www.w3.org/1999/xlink" width="94px" height="94px" viewBox="0 0 94 94" is="gwd-image" source="assets/Tag.svg" id="Tag-shape" class="gwd-img-1cjw" src="assets/Tag.svg" data-gwd-node="true" gwd-svg-index="2">
<path fill-rule="evenodd" fill="rgb(240, 35, 35)" d="M87.151,50.954 C87.151,50.954 94.001,47.001 94.001,47.001 C94.001,47.001 87.152,43.046 87.152,43.046 C87.152,43.046 93.097,37.832 93.097,37.832 C93.097,37.832 85.609,35.288 85.609,35.288 C85.609,35.288 90.424,29.015 90.424,29.015 C90.424,29.015 82.582,27.981 82.582,27.981 C82.582,27.981 86.081,20.890 86.081,20.890 C86.081,20.890 78.188,21.405 78.188,21.405 C78.188,21.405 80.236,13.768 80.236,13.768 C80.236,13.768 72.595,15.812 72.595,15.812 C72.595,15.812 73.114,7.922 73.114,7.922 C73.114,7.922 66.019,11.419 66.019,11.419 C66.019,11.419 64.988,3.577 64.988,3.577 C64.988,3.577 58.713,8.391 58.713,8.391 C58.713,8.391 56.171,0.903 56.171,0.903 C56.171,0.903 50.955,6.850 50.955,6.850 C50.955,6.850 47.001,-0.001 47.001,-0.001 C47.001,-0.001 43.047,6.850 43.047,6.850 C43.047,6.850 37.831,0.903 37.831,0.903 C37.831,0.903 35.289,8.391 35.289,8.391 C35.289,8.391 29.014,3.577 29.014,3.577 C29.014,3.577 27.982,11.419 27.982,11.419 C27.982,11.419 20.888,7.920 20.888,7.920 C20.888,7.920 21.406,15.812 21.406,15.812 C21.406,15.812 13.766,13.766 13.766,13.766 C13.766,13.766 15.813,21.405 15.813,21.405 C15.813,21.405 7.921,20.888 7.921,20.888 C7.921,20.888 11.419,27.981 11.419,27.981 C11.419,27.981 3.577,29.012 3.577,29.012 C3.577,29.012 8.392,35.288 8.392,35.288 C8.392,35.288 0.902,37.830 0.902,37.830 C0.902,37.830 6.848,43.046 6.848,43.046 C6.848,43.046 -0.001,46.999 -0.001,46.999 C-0.001,46.999 6.848,50.954 6.848,50.954 C6.848,50.954 0.901,56.170 0.901,56.170 C0.901,56.170 8.392,58.712 8.392,58.712 C8.392,58.712 3.576,64.985 3.576,64.985 C3.576,64.985 11.418,66.018 11.418,66.018 C11.418,66.018 7.919,73.112 7.919,73.112 C7.919,73.112 15.812,72.594 15.812,72.594 C15.812,72.594 13.765,80.234 13.765,80.234 C13.765,80.234 21.405,78.188 21.405,78.188 C21.405,78.188 20.887,86.080 20.887,86.080 C20.887,86.080 27.981,82.581 27.981,82.581 C27.981,82.581 29.013,90.423 29.013,90.423 C29.013,90.423 35.289,85.608 35.289,85.608 C35.289,85.608 37.830,93.097 37.830,93.097 C37.830,93.097 43.046,87.153 43.046,87.153 C43.046,87.153 46.998,94.001 46.998,94.001 C46.998,94.001 50.954,87.153 50.954,87.153 C50.954,87.153 56.168,93.099 56.168,93.099 C56.168,93.099 58.713,85.608 58.713,85.608 C58.713,85.608 64.986,90.423 64.986,90.423 C64.986,90.423 66.019,82.581 66.019,82.581 C66.019,82.581 73.112,86.080 73.112,86.080 C73.112,86.080 72.595,78.188 72.595,78.188 C72.595,78.188 80.234,80.237 80.234,80.237 C80.234,80.237 78.188,72.594 78.188,72.594 C78.188,72.594 86.079,73.114 86.079,73.114 C86.079,73.114 82.582,66.018 82.582,66.018 C82.582,66.018 90.423,64.988 90.423,64.988 C90.423,64.988 85.609,58.712 85.609,58.712 C85.609,58.712 93.097,56.170 93.097,56.170 C93.097,56.170 87.151,50.954 87.151,50.954 Z" data-gwd-node="true"></path>
</svg>