<?xml version="1.0" encoding="utf-8"?>
<!-- Generator: Adobe Illustrator 16.0.0, SVG Export Plug-In . SVG Version: 6.00 Build 0)  -->
<!DOCTYPE svg PUBLIC "-//W3C//DTD SVG 1.1//EN" "http://www.w3.org/Graphics/SVG/1.1/DTD/svg11.dtd">
<svg version="1.1" id="Layer_1" xmlns="http://www.w3.org/2000/svg" xmlns:xlink="http://www.w3.org/1999/xlink" x="0px" y="0px"
	 width="4.547px" height="7.797px" viewBox="0 0 4.547 7.797" enable-background="new 0 0 4.547 7.797" xml:space="preserve">
<g>
	<path fill="#183B09" d="M0,7.148c0-0.067,0.026-0.127,0.078-0.18l3.07-3.07l-3.07-3.07C0.026,0.776,0,0.716,0,0.648
		c0-0.067,0.026-0.127,0.078-0.18l0.391-0.391C0.521,0.026,0.581,0,0.648,0s0.128,0.026,0.18,0.078l3.641,3.641
		c0.052,0.052,0.078,0.112,0.078,0.18c0,0.068-0.026,0.128-0.078,0.18L0.828,7.719c-0.052,0.053-0.112,0.078-0.18,0.078
		s-0.128-0.025-0.18-0.078L0.078,7.328C0.026,7.276,0,7.217,0,7.148z"/>
</g>
</svg>
