<?xml version="1.0" encoding="utf-8"?>
<!-- Generator: Adobe Illustrator 16.0.0, SVG Export Plug-In . SVG Version: 6.00 Build 0)  -->
<!DOCTYPE svg PUBLIC "-//W3C//DTD SVG 1.1//EN" "http://www.w3.org/Graphics/SVG/1.1/DTD/svg11.dtd">
<svg version="1.1" id="Layer_1" xmlns="http://www.w3.org/2000/svg" xmlns:xlink="http://www.w3.org/1999/xlink" x="0px" y="0px"
	 width="8.094px" height="12.594px" viewBox="0 0 8.094 12.594" enable-background="new 0 0 8.094 12.594" xml:space="preserve">
<g>
	<path d="M0,10.797c0-0.135,0.05-0.252,0.148-0.352l4.148-4.148L0.148,2.148C0.05,2.05,0,1.933,0,1.797
		c0-0.135,0.05-0.252,0.148-0.352l1.297-1.297C1.544,0.05,1.661,0,1.797,0S2.05,0.05,2.148,0.148l5.797,5.797
		c0.099,0.099,0.148,0.216,0.148,0.352c0,0.136-0.05,0.253-0.148,0.352l-5.797,5.797c-0.099,0.099-0.216,0.148-0.352,0.148
		s-0.253-0.05-0.352-0.148l-1.297-1.297C0.05,11.05,0,10.933,0,10.797z"/>
</g>
</svg>
